<svg version="1.1" id="Слой_1" xmlns="http://www.w3.org/2000/svg" xmlns:xlink="http://www.w3.org/1999/xlink" x="0" y="0" viewBox="0 0 1024 153" xml:space="preserve"><switch><g><path d="M94 59.4c0-4.4-.8-8.6-2.5-12.4-1.7-4-4-7.3-6.9-10.2-2.9-3-6.3-5.2-10.3-7-3.9-1.7-8-2.5-12.4-2.5H2.1l18.4 18.5h41.4c1.8 0 3.6.3 5.2 1 1.8.7 3.3 1.7 4.6 3 1.2 1.2 2.2 2.8 2.9 4.4.7 1.7 1.1 3.4 1.1 5.2 0 1.8-.4 3.6-1.1 5.2-.7 1.7-1.7 3.2-2.9 4.4-.9.9-2 1.6-3.2 2.3-.4.2-.7.6-1.2.8-1.8.7-3.5 1.1-5.4 1.1H2.1v64.4h59.8c4.4 0 8.5-.8 12.4-2.5 4-1.8 7.5-4 10.3-7 2.9-2.9 5.2-6.2 6.9-10.2 1.7-3.9 2.5-8 2.5-12.4 0-9.1-3.2-16.8-9.7-23 6.5-6.2 9.7-14 9.7-23.1zm-19.5 51.4c-.7 1.7-1.7 3.2-2.9 4.4-1.2 1.4-2.8 2.3-4.6 3-1.7.7-3.4 1-5.2 1H20.6V91.7h41.3c1.9 0 3.7.4 5.4 1.1.5.2.8.6 1.2.8 1.1.7 2.3 1.3 3.2 2.3 1.2 1.2 2.2 2.8 2.9 4.4.7 1.7 1.1 3.4 1.1 5.2s-.5 3.6-1.2 5.3zm127-2.4c2-5.2 3-10.7 3-16.7V27.3h-18.4v64.4c0 7.4-2.9 13.9-8.3 19.3-5.3 5.3-11.8 8.1-19.3 8.1s-14-2.8-19.3-8.1c-5.4-5.4-8.3-11.9-8.3-19.3V27.3h-18.4v64.4c0 6 1.1 11.5 3 16.7.1.3.2.7.3 1 .2.5.5.9.8 1.4 2.2 4.9 5.2 9.4 9.3 13.5 9 9 19.9 13.4 32.4 13.4h.2c12.6 0 23.5-4.4 32.4-13.4 4.1-4.1 7.1-8.6 9.3-13.5.2-.5.6-.9.8-1.4.4-.4.4-.7.5-1zm95.4-81.1h-73.6l18.4 18.5H260v91.9h18.5V45.8h36.7zm92.5 0h-73.5l18.3 18.5h18.4v91.9h18.5V45.8h36.7zm110.6 0v18.5h-55.2l-18.4-18.5H500zm-55.2 46.1H500v18.4h-73.6V73.4h18.4zm0 45.8H500v18.5h-73.5v-1.5l18.3-17zm136.5-21.1l22.6 39.6h-21.1l-32-55.3 16.4.1c5 0 9.2-1.8 12.8-5.4 3.7-3.6 5.5-8 5.5-13.1 0-5-1.8-9.2-5.5-12.8-3.6-3.6-7.9-5.4-12.8-5.4h-36.8l-2.1-2.1-9.5-16.4h48.4c10.1 0 18.8 3.6 25.9 10.8 7.2 7.3 10.8 15.9 10.8 25.9 0 7.7-2.1 14.6-6.5 20.8-4.3 6.2-9.7 10.6-16.1 13.3z" fill="#1d1d1b"/><linearGradient id="SVGID_1_" gradientUnits="userSpaceOnUse" x1="668.54" y1="21.209" x2="668.541" y2="179.411"><stop offset="0" stop-color="#92bac6"/><stop offset="1" stop-color="#507e98"/></linearGradient><path d="M712 47c-1.7-4-4-7.3-6.9-10.2-2.9-3-6.3-5.2-10.3-7-3.9-1.7-8-2.5-12.4-2.5h-59.8L641 45.8h41.4c1.8 0 3.6.3 5.2 1 1.8.7 3.3 1.7 4.6 3 1.2 1.2 2.2 2.8 2.9 4.4.7 1.7 1.1 3.4 1.1 5.2s-.4 3.6-1.1 5.2c-.7 1.7-1.7 3.2-2.9 4.4-.9.9-2 1.6-3.2 2.3-.4.2-.7.6-1.2.8-1.8.7-3.5 1.1-5.4 1.1h-59.8v64.4h59.8c4.4 0 8.5-.8 12.4-2.5 4-1.8 7.5-4 10.3-7 2.9-2.9 5.2-6.2 6.9-10.2 1.7-3.9 2.5-8 2.5-12.4 0-9.1-3.2-16.8-9.7-23 6.5-6.2 9.7-13.9 9.7-23 0-4.5-.8-8.6-2.5-12.5zm-17 63.8c-.7 1.7-1.7 3.2-2.9 4.4-1.2 1.4-2.8 2.3-4.6 3-1.7.7-3.4 1-5.2 1H641V91.7h41.3c1.9 0 3.7.4 5.4 1.1.5.2.8.6 1.2.8 1.1.7 2.3 1.3 3.2 2.3 1.2 1.2 2.2 2.8 2.9 4.4.7 1.7 1.1 3.4 1.1 5.2 0 1.8-.4 3.6-1.1 5.3z" fill="url(#SVGID_1_)"/><linearGradient id="SVGID_2_" gradientUnits="userSpaceOnUse" x1="772.846" y1="21.209" x2="772.846" y2="179.411"><stop offset="0" stop-color="#92bac6"/><stop offset="1" stop-color="#507e98"/></linearGradient><path fill="url(#SVGID_2_)" d="M782 27.3l-55.2 110.4h20.5l9.3-18.5 9.1-18.2L782 68.5l16.2 32.5h20.7z"/><linearGradient id="SVGID_3_" gradientUnits="userSpaceOnUse" x1="822.381" y1="21.209" x2="822.381" y2="179.411"><stop offset="0" stop-color="#92bac6"/><stop offset="1" stop-color="#507e98"/></linearGradient><path fill="url(#SVGID_3_)" d="M807.5 119.3l9.2 18.4h20.5l-9.2-18.4z"/><linearGradient id="SVGID_4_" gradientUnits="userSpaceOnUse" x1="883.676" y1="21.209" x2="883.677" y2="179.411"><stop offset="0" stop-color="#92bac6"/><stop offset="1" stop-color="#507e98"/></linearGradient><path d="M897.3 73.4h-27.5c-4 0-7.2-1.4-9.9-4.1-2.6-2.8-3.9-5.9-3.9-9.8 0-1.8.3-3.6 1-5.2.7-1.7 1.7-3.2 2.9-4.4 1.4-1.4 2.8-2.3 4.6-3 1.7-.7 3.4-1 5.4-1V27.3c-9 0-16.6 3.2-22.8 9.5-6.2 6.3-9.4 13.8-9.4 22.6 0 9 3.2 16.6 9.4 22.9 6.2 6.2 13.8 9.4 22.8 9.4h27.5c3.9 0 7 1.4 9.8 4.1 2.6 2.8 4.1 5.9 4.1 9.7 0 1.9-.4 3.7-1.1 5.4-.7 1.8-1.7 3.2-2.9 4.4-1.2 1.2-2.8 2.2-4.6 2.9-1.7.7-3.4 1-5.4 1v18.5c9 0 16.6-3.2 22.8-9.4 6.3-6.3 9.5-13.9 9.5-22.8s-3.2-16.4-9.5-22.8c-6.2-6.2-13.8-9.3-22.8-9.3z" fill="url(#SVGID_4_)"/><linearGradient id="SVGID_5_" gradientUnits="userSpaceOnUse" x1="985.147" y1="21.209" x2="985.147" y2="179.411"><stop offset="0" stop-color="#92bac6"/><stop offset="1" stop-color="#507e98"/></linearGradient><path fill="url(#SVGID_5_)" d="M948.4 27.3l18.3 18.5h55.2V27.3z"/><linearGradient id="SVGID_6_" gradientUnits="userSpaceOnUse" x1="985.147" y1="21.209" x2="985.147" y2="179.411"><stop offset="0" stop-color="#92bac6"/><stop offset="1" stop-color="#507e98"/></linearGradient><path fill="url(#SVGID_6_)" d="M948.4 136.1v1.6h73.5v-18.5h-55.2z"/><linearGradient id="SVGID_7_" gradientUnits="userSpaceOnUse" x1="985.147" y1="21.209" x2="985.147" y2="179.411"><stop offset="0" stop-color="#92bac6"/><stop offset="1" stop-color="#507e98"/></linearGradient><path fill="url(#SVGID_7_)" d="M948.4 73.4v18.3h73.5V73.4h-55.2z"/></g></switch></svg>