<svg version="1.1" id="Слой_1" xmlns="http://www.w3.org/2000/svg" xmlns:xlink="http://www.w3.org/1999/xlink" x="0" y="0" viewBox="0 0 780.7 80.4" xml:space="preserve"><switch><g><path d="M0 62.1h18.5v18.5H0zM762.3 0h18.5v80.5h-18.5zM36.9 80.5h18.5L73.9 0H55.4z" fill="#8ea0b2"/><path d="M142.5 46.4c2.8-1.4 5-3.4 6.5-5.8 1.5-2.5 2.3-5.2 2.3-8.3 0-5.2-2.2-9.4-6.5-12.4-4.4-3.1-10.7-4.6-19-4.6H92.3v65.3h35.2c8.7 0 15.4-1.6 20-4.7s6.9-7.5 6.9-13.2c0-3.9-1.1-7.3-3.2-10-2.1-2.9-5-5-8.7-6.3zm-31.9-17.9h12.7c6.2 0 9.3 2.1 9.3 6.2 0 4.2-3.1 6.3-9.3 6.3h-12.7V28.5zm15.5 38.6h-15.5V53.9h15.5c6.5 0 9.7 2.2 9.7 6.6 0 4.4-3.3 6.6-9.7 6.6zm80.5-16.3c0 10.4-4.1 15.7-12.3 15.7-8.3 0-12.4-5.2-12.4-15.7V15.2h-18.5v36.2c0 9.7 2.7 17.2 8.1 22.5 5.4 5.3 12.9 7.9 22.6 7.9 9.7 0 17.2-2.6 22.6-7.9 5.4-5.3 8.1-12.8 8.1-22.5V15.2h-18.2v35.6zm23.5-21h20.1v50.6h18.4V29.8h20V15.2h-58.5zm60.2 0h20v50.6h18.5V29.8h19.9V15.2h-58.4zm183.5 21.9c2.2-3.5 3.3-7.6 3.3-12.3 0-4.9-1.2-9.2-3.5-12.8-2.4-3.6-5.7-6.4-10.1-8.4-4.4-2-9.5-2.9-15.4-2.9h-29.8v65.3h18.5V63.1h10.1l11.8 17.3h19.8l-14.1-20.5c4.1-2 7.2-4.7 9.4-8.2zm-18.2-5.3c-1.9 1.7-4.8 2.5-8.6 2.5h-10.3V29.7H447c3.8 0 6.7.8 8.6 2.5 1.9 1.7 2.9 4 2.9 7.1s-1 5.4-2.9 7.1zm81.9 0c2.8-1.4 5-3.4 6.5-5.8 1.5-2.5 2.3-5.2 2.3-8.3 0-5.2-2.2-9.4-6.5-12.4s-10.7-4.6-19-4.6h-33.4v65.3h35.2c8.7 0 15.4-1.6 20-4.7s6.9-7.5 6.9-13.2c0-3.9-1.1-7.3-3.2-10-2.2-2.9-5.1-5-8.8-6.3zm-31.9-17.9h12.7c6.2 0 9.3 2.1 9.3 6.2 0 4.2-3.1 6.3-9.3 6.3h-12.7V28.5zM521 67.1h-15.5V53.9H521c6.5 0 9.7 2.2 9.7 6.6 0 4.4-3.2 6.6-9.7 6.6zm59-51.9l-28.8 65.3H570l5.1-12.7h27.6l5.1 12.7H627l-28.9-65.3H580zm.5 39l8.4-20.9 8.4 20.9h-16.8zM672 44.1c-3.3-1.2-7.4-2.3-12.4-3.4-4.4-.9-7.6-1.8-9.6-2.7-2-.9-3-2.2-3-3.9 0-1.7.8-3.2 2.5-4.2 1.7-1.1 4.4-1.6 8-1.6 5.8 0 11.9 1.7 18.1 5l5.7-13.7c-3.2-1.9-6.8-3.3-11-4.2-4.2-1-8.4-1.4-12.7-1.4-6.3 0-11.6.9-15.9 2.8-4.3 1.9-7.6 4.4-9.7 7.6-2.2 3.2-3.3 6.8-3.3 10.8 0 4.5 1.2 8.1 3.5 10.8 2.4 2.7 5.2 4.6 8.5 5.8 3.3 1.2 7.4 2.3 12.3 3.4 4.5 1 7.7 1.9 9.7 2.8 2 .9 3 2.3 3 4.2 0 3.5-3.5 5.3-10.6 5.3-3.7 0-7.5-.6-11.4-1.8-3.8-1.2-7.2-2.7-10.2-4.7l-6.1 13.6c3.1 2.2 7.2 3.9 12.1 5.2 5 1.3 10.1 2 15.4 2 6.2 0 11.5-1 15.9-2.8 4.3-1.9 7.6-4.4 9.8-7.6 2.2-3.2 3.3-6.7 3.3-10.6 0-4.5-1.2-8.1-3.6-10.8-2.2-2.7-5-4.7-8.3-5.9zm20.6-28.9h51.2v14.3h-51.2zm0 25.2h51.2v13.8h-51.2zm0 25.8h51.2v14.3h-51.2zm-337-51h51.2v14.3h-51.2zm0 25.2h51.2v13.8h-51.2zm0 25.8h51.2v14.3h-51.2z" fill="#020203"/></g></switch></svg>