<svg version="1.1" id="Layer_1" xmlns="http://www.w3.org/2000/svg" xmlns:xlink="http://www.w3.org/1999/xlink" x="0" y="0" viewBox="209.5 27.5 575 504" xml:space="preserve"><style>.st0{fill:#fff}</style><switch><g><path class="st0" d="M776.7 43.9c0-.1-.1-.6-.1-.6 0-.2-.1-.4-.2-.6 0-.1-.1-.3-.1-.4l-.1-.4c0-.1-.1-.3-.2-.4-.1-.2-.1-.3-.2-.5 0 0-.2-.5-.3-.6-.4-.7-.9-1.4-1.4-2.1l-.1-.1-.3-.3c-.1-.2-.3-.3-.5-.5-.1-.1-.2-.2-.4-.3l-.3-.2-.3-.3c-.1-.1-.3-.2-.5-.4l-.5-.4c-.2-.1-.4-.2-.6-.4 0 0-.3-.2-.5-.3-.2-.1-.3-.2-.5-.2l-.2-.1c-.1-.1-.3-.1-.4-.2-.2-.1-.3-.1-.5-.2l-.1-.1c-.2-.1-.3-.1-.5-.2-.1 0-.3-.1-.4-.1l-.3-.1c-.1 0-.3-.1-.4-.1-.2 0-.3-.1-.5-.1 0 0-.6-.1-.7-.1H225.3c-.2 0-.3 0-.5.1h-.3c-.1 0-.3 0-.4.1-.2 0-.4.1-.6.1h-.1s-.4.1-.5.1c-.2.1-.4.1-.7.2 0 0-.4.1-.5.2-.2.1-.3.1-.6.3 0 0-.4.2-.5.3-.2.1-.3.2-.5.3l-.2.1c-.1.1-.3.2-.4.3-.1.1-.5.4-.5.4-.2.1-.3.2-.4.3l-.3.3-.2.2-.3.3c-.2.1-.3.3-.5.5l-.2.2-.2.2c-.5.6-1 1.3-1.4 2 0 .1-.3.5-.3.5-.1.2-.2.4-.2.5-.1.1-.1.3-.2.4l-.1.3c-.1.1-.1.3-.1.4-.1.2-.1.4-.2.7v.1c0 .1-.1.3-.1.4-.2.8-.2 1.6-.2 2.5v356.5c0 .1.1.6.1.7 0 .2.1.3.1.5 0 .1.1.3.1.4l.1.3c0 .2.1.3.1.5 0 .1.1.3.2.5l.1.2c.1.2.1.3.2.5s.1.3.3.6c0 0 .2.4.3.5l.3.6s.2.4.3.5c.2.2.3.5.5.7l.1.2.1.1c.3.4.6.7.9 1l.3.3.6.6c.1.1.3.2.5.3.2.1.4.3.6.4.2.1.3.2.5.3.2.1.4.2.7.4.1.1.3.1.4.2.3.1.5.2.8.3l.4.2c.3.1.6.2.9.2l.4.1c.3.1.7.1 1 .2h.3c.4 0 .9.1 1.3.1h199.8l58.3 105.5c2.2 4 6.4 6.4 10.9 6.4s8.7-2.5 10.9-6.4l58.3-105.5h199.8c.4 0 .9 0 1.3-.1h.2c.4 0 .7-.1 1.2-.2h.2l.9-.3c.1 0 .4-.1.4-.1.3-.1.5-.2.8-.3.1-.1.3-.1.5-.2s.5-.2.7-.4c.2-.1.3-.2.5-.3.2-.1.4-.3.7-.5.1-.1.3-.2.4-.3.2-.2.4-.4.6-.5l.4-.3c.3-.3.6-.6.9-1l.3-.4c.1-.2.3-.3.4-.5 0-.1.4-.6.4-.6.1-.1.2-.3.2-.4.1-.1.1-.2.2-.4l.1-.2c.1-.2.2-.3.2-.5.1-.2.1-.3.2-.5l.1-.2c.1-.1.1-.3.1-.4 0-.2.1-.3.2-.6v-.2c0-.1.1-.3.1-.4 0-.2.1-.4.1-.7l.1-.5V46c-.1-.6-.2-1.4-.3-2.1zm-46.5 14.9L495.5 254.7 260.8 58.8h469.4zM239 73l183.8 153.5L239 375.6V73zm318.3 316.2c-4.5 0-8.7 2.5-10.9 6.4l-50.9 92.2-50.9-92.2c-2.2-4-6.4-6.4-10.9-6.4H261.6l180.7-146.6 45.3 37.8c2.2 1.9 5.1 2.9 8 2.9 2.9 0 5.7-1 8-2.9l45.5-37.9 180.5 146.7H557.3zM752 375.6L568.4 226.3 752 73v302.6z"/><path class="st0" d="M266.7 203.5c-6.9 0-12.4 5.6-12.4 12.4v83.3c0 6.9 5.6 12.4 12.4 12.4 6.9 0 12.4-5.6 12.4-12.4v-83.3c.1-6.8-5.5-12.4-12.4-12.4zm0-4.5c7.9 0 12.1-6.3 12.1-12.4 0-6.2-4.1-12.4-12.1-12.4-7.9 0-12.1 6.3-12.1 12.4 0 3.2 1.1 6.2 3 8.5 2.3 2.5 5.4 3.9 9.1 3.9z"/></g></switch></svg>